<svg xmlns="http://www.w3.org/2000/svg" width="1280" height="640" viewBox="0 0 1280 640">
  <defs>
    <linearGradient id="bg" x1="0" y1="0" x2="1" y2="1">
      <stop offset="0%" stop-color="#0d0500"/>
      <stop offset="100%" stop-color="#160800"/>
    </linearGradient>
    <linearGradient id="accent" x1="0" y1="0" x2="1" y2="0">
      <stop offset="0%" stop-color="#f97316"/>
      <stop offset="100%" stop-color="#ea580c"/>
    </linearGradient>
    <filter id="glow">
      <feGaussianBlur stdDeviation="5" result="blur"/>
      <feMerge><feMergeNode in="blur"/><feMergeNode in="SourceGraphic"/></feMerge>
    </filter>
  </defs>
  <rect width="1280" height="640" fill="url(#bg)"/>
  <ellipse cx="1000" cy="280" rx="380" ry="340" fill="#ea580c" fill-opacity="0.07"/>
  <ellipse cx="120" cy="500" rx="240" ry="220" fill="#f97316" fill-opacity="0.04"/>
  <rect x="92" y="148" width="64" height="18" rx="4" fill="none" stroke="#f97316" stroke-width="2.5" filter="url(#glow)"/>
  <rect x="100" y="166" width="48" height="28" rx="3" fill="none" stroke="#f97316" stroke-width="2" filter="url(#glow)"/>
  <line x1="164" y1="152" x2="178" y2="144" stroke="#fbbf24" stroke-width="2" stroke-linecap="round" opacity="0.8"/>
  <line x1="164" y1="158" x2="182" y2="158" stroke="#fbbf24" stroke-width="2" stroke-linecap="round" opacity="0.6"/>
  <line x1="164" y1="164" x2="178" y2="172" stroke="#fbbf24" stroke-width="2" stroke-linecap="round" opacity="0.7"/>
  <rect x="840" y="140" width="110" height="36" rx="6" fill="#1a0800" stroke="#f97316" stroke-opacity="0.4" stroke-width="1"/>
  <text x="895" y="162" fill="#fb923c" font-family="monospace" font-size="11" text-anchor="middle">Code Agent</text>
  <rect x="840" y="192" width="110" height="36" rx="6" fill="#1a0800" stroke="#f97316" stroke-opacity="0.35" stroke-width="1"/>
  <text x="895" y="214" fill="#fb923c" font-family="monospace" font-size="11" text-anchor="middle">Research Agent</text>
  <rect x="840" y="244" width="110" height="36" rx="6" fill="#1a0800" stroke="#f97316" stroke-opacity="0.3" stroke-width="1"/>
  <text x="895" y="266" fill="#fb923c" font-family="monospace" font-size="11" text-anchor="middle">Memory Agent</text>
  <rect x="840" y="296" width="110" height="36" rx="6" fill="#1a0800" stroke="#f97316" stroke-opacity="0.25" stroke-width="1"/>
  <text x="895" y="318" fill="#fb923c" font-family="monospace" font-size="11" text-anchor="middle">Planner Agent</text>
  <rect x="840" y="348" width="110" height="36" rx="6" fill="#1a0800" stroke="#f97316" stroke-opacity="0.2" stroke-width="1"/>
  <text x="895" y="370" fill="#fb923c" font-family="monospace" font-size="11" text-anchor="middle">Exec Agent</text>
  <rect x="970" y="140" width="110" height="36" rx="6" fill="#1a0800" stroke="#f97316" stroke-opacity="0.35" stroke-width="1"/>
  <text x="1025" y="162" fill="#fb923c" font-family="monospace" font-size="11" text-anchor="middle">LangChain</text>
  <rect x="970" y="192" width="110" height="36" rx="6" fill="#1a0800" stroke="#f97316" stroke-opacity="0.3" stroke-width="1"/>
  <text x="1025" y="214" fill="#fb923c" font-family="monospace" font-size="11" text-anchor="middle">AutoGen</text>
  <rect x="970" y="244" width="110" height="36" rx="6" fill="#1a0800" stroke="#f97316" stroke-opacity="0.25" stroke-width="1"/>
  <text x="1025" y="266" fill="#fb923c" font-family="monospace" font-size="11" text-anchor="middle">CrewAI</text>
  <rect x="970" y="296" width="110" height="36" rx="6" fill="#1a0800" stroke="#f97316" stroke-opacity="0.2" stroke-width="1"/>
  <text x="1025" y="318" fill="#fb923c" font-family="monospace" font-size="11" text-anchor="middle">ChromaDB</text>
  <rect x="970" y="348" width="110" height="36" rx="6" fill="#1a0800" stroke="#f97316" stroke-opacity="0.15" stroke-width="1"/>
  <text x="1025" y="370" fill="#fb923c" font-family="monospace" font-size="11" text-anchor="middle">Stripe</text>
  <rect x="1100" y="140" width="110" height="36" rx="6" fill="#1a0800" stroke="#f97316" stroke-opacity="0.3" stroke-width="1"/>
  <text x="1155" y="162" fill="#fb923c" font-family="monospace" font-size="11" text-anchor="middle">10K+ Skills</text>
  <rect x="1100" y="192" width="110" height="36" rx="6" fill="#1a0800" stroke="#f97316" stroke-opacity="0.25" stroke-width="1"/>
  <text x="1155" y="214" fill="#fb923c" font-family="monospace" font-size="11" text-anchor="middle">FastAPI</text>
  <rect x="1100" y="244" width="110" height="36" rx="6" fill="#1a0800" stroke="#f97316" stroke-opacity="0.2" stroke-width="1"/>
  <text x="1155" y="266" fill="#fb923c" font-family="monospace" font-size="11" text-anchor="middle">Next.js 14</text>
  <rect x="1100" y="296" width="110" height="36" rx="6" fill="#1a0800" stroke="#f97316" stroke-opacity="0.15" stroke-width="1"/>
  <text x="1155" y="318" fill="#fb923c" font-family="monospace" font-size="11" text-anchor="middle">Docker</text>
  <rect x="1100" y="348" width="110" height="36" rx="6" fill="#1a0800" stroke="#f97316" stroke-opacity="0.12" stroke-width="1"/>
  <text x="1155" y="370" fill="#fb923c" font-family="monospace" font-size="11" text-anchor="middle">Redis+FAISS</text>
  <text x="88" y="198" fill="#94a3b8" font-family="Inter,-apple-system,sans-serif" font-size="22" font-weight="500" letter-spacing="3">SAMOTECH</text>
  <text x="88" y="308" fill="#ffffff" font-family="Inter,-apple-system,sans-serif" font-size="96" font-weight="800" letter-spacing="-2">AgentForge</text>
  <rect x="88" y="326" width="220" height="4" rx="2" fill="url(#accent)"/>
  <text x="88" y="385" fill="#fb923c" font-family="Inter,-apple-system,sans-serif" font-size="23" font-weight="400">Mega AI Agent Platform</text>
  <text x="88" y="425" fill="#475569" font-family="Inter,-apple-system,sans-serif" font-size="20">10,000+ skills · Multi-agent · Persistent memory · SaaS-ready</text>
  <rect x="88" y="476" width="130" height="38" rx="19" fill="#ea580c" fill-opacity="0.1" stroke="#f97316" stroke-opacity="0.3" stroke-width="1"/>
  <text x="153" y="501" fill="#f97316" font-family="Inter,sans-serif" font-size="15" font-weight="500" text-anchor="middle">10,000+ Skills</text>
  <rect x="234" y="476" width="110" height="38" rx="19" fill="#ea580c" fill-opacity="0.08" stroke="#f97316" stroke-opacity="0.25" stroke-width="1"/>
  <text x="289" y="501" fill="#f97316" font-family="Inter,sans-serif" font-size="15" font-weight="500" text-anchor="middle">4 Frameworks</text>
  <rect x="360" y="476" width="108" height="38" rx="19" fill="#ea580c" fill-opacity="0.08" stroke="#f97316" stroke-opacity="0.25" stroke-width="1"/>
  <text x="414" y="501" fill="#f97316" font-family="Inter,sans-serif" font-size="15" font-weight="500" text-anchor="middle">Stripe SaaS</text>
  <rect x="484" y="476" width="100" height="38" rx="19" fill="#ea580c" fill-opacity="0.08" stroke="#f97316" stroke-opacity="0.25" stroke-width="1"/>
  <text x="534" y="501" fill="#f97316" font-family="Inter,sans-serif" font-size="15" font-weight="500" text-anchor="middle">Docker</text>
</svg>